<svg width="98" height="41" viewBox="0 0 98 41" fill="none" xmlns="http://www.w3.org/2000/svg">
<path d="M8.73929 19H5.77338L10.2926 5.90909H13.8593L18.3721 19H15.4062L12.1271 8.90057H12.0248L8.73929 19ZM8.55392 13.8544H15.5596V16.0149H8.55392V13.8544ZM19.8966 22.6818V9.18182H22.5813V10.831H22.7027C22.822 10.5668 22.9946 10.2983 23.2205 10.0256C23.4506 9.74858 23.7489 9.51847 24.1154 9.33523C24.4861 9.14773 24.9463 9.05398 25.496 9.05398C26.2119 9.05398 26.8725 9.24148 27.4776 9.61648C28.0827 9.98722 28.5664 10.5476 28.9286 11.2976C29.2908 12.0433 29.4719 12.9787 29.4719 14.1037C29.4719 15.1989 29.295 16.1236 28.9414 16.8778C28.5919 17.6278 28.1146 18.1967 27.5095 18.5845C26.9087 18.968 26.2354 19.1598 25.4896 19.1598C24.9612 19.1598 24.5117 19.0724 24.1409 18.8977C23.7744 18.723 23.474 18.5036 23.2396 18.2393C23.0053 17.9709 22.8263 17.7003 22.7027 17.4276H22.6196V22.6818H19.8966ZM22.5621 14.0909C22.5621 14.6747 22.6431 15.1839 22.805 15.6186C22.9669 16.0533 23.2013 16.392 23.5081 16.6349C23.8149 16.8736 24.1878 16.9929 24.6267 16.9929C25.0699 16.9929 25.4449 16.8714 25.7517 16.6286C26.0585 16.3814 26.2908 16.0405 26.4485 15.6058C26.6104 15.1669 26.6914 14.6619 26.6914 14.0909C26.6914 13.5241 26.6125 13.0256 26.4548 12.5952C26.2972 12.1648 26.0649 11.8281 25.7581 11.5852C25.4513 11.3423 25.0742 11.2209 24.6267 11.2209C24.1835 11.2209 23.8085 11.3381 23.5017 11.5724C23.1992 11.8068 22.9669 12.1392 22.805 12.5696C22.6431 13 22.5621 13.5071 22.5621 14.0909ZM31.2872 22.6818V9.18182H33.9719V10.831H34.0933C34.2127 10.5668 34.3852 10.2983 34.6111 10.0256C34.8412 9.74858 35.1395 9.51847 35.506 9.33523C35.8767 9.14773 36.3369 9.05398 36.8867 9.05398C37.6026 9.05398 38.2631 9.24148 38.8682 9.61648C39.4733 9.98722 39.957 10.5476 40.3192 11.2976C40.6814 12.0433 40.8625 12.9787 40.8625 14.1037C40.8625 15.1989 40.6857 16.1236 40.332 16.8778C39.9825 17.6278 39.5053 18.1967 38.9002 18.5845C38.2993 18.968 37.626 19.1598 36.8803 19.1598C36.3519 19.1598 35.9023 19.0724 35.5316 18.8977C35.1651 18.723 34.8646 18.5036 34.6303 18.2393C34.3959 17.9709 34.2169 17.7003 34.0933 17.4276H34.0102V22.6818H31.2872ZM33.9527 14.0909C33.9527 14.6747 34.0337 15.1839 34.1956 15.6186C34.3575 16.0533 34.5919 16.392 34.8987 16.6349C35.2056 16.8736 35.5784 16.9929 36.0173 16.9929C36.4605 16.9929 36.8355 16.8714 37.1423 16.6286C37.4492 16.3814 37.6814 16.0405 37.8391 15.6058C38.001 15.1669 38.082 14.6619 38.082 14.0909C38.082 13.5241 38.0031 13.0256 37.8455 12.5952C37.6878 12.1648 37.4556 11.8281 37.1487 11.5852C36.8419 11.3423 36.4648 11.2209 36.0173 11.2209C35.5742 11.2209 35.1992 11.3381 34.8923 11.5724C34.5898 11.8068 34.3575 12.1392 34.1956 12.5696C34.0337 13 33.9527 13.5071 33.9527 14.0909ZM45.4009 5.90909V19H42.6779V5.90909H45.4009ZM52.0566 19.1918C51.0466 19.1918 50.1773 18.9872 49.4486 18.5781C48.7242 18.1648 48.166 17.581 47.7739 16.8267C47.3819 16.0682 47.1858 15.1712 47.1858 14.1357C47.1858 13.1257 47.3819 12.2393 47.7739 11.4766C48.166 10.7138 48.7178 10.1193 49.4295 9.69318C50.1454 9.26705 50.9849 9.05398 51.9479 9.05398C52.5956 9.05398 53.1986 9.15838 53.7569 9.36719C54.3194 9.57173 54.8094 9.88068 55.227 10.294C55.6489 10.7074 55.977 11.2273 56.2114 11.8537C56.4458 12.4759 56.563 13.2045 56.563 14.0398V14.7876H48.2725V13.1001H53.9998C53.9998 12.7081 53.9145 12.3608 53.7441 12.0582C53.5736 11.7557 53.3371 11.5192 53.0346 11.3487C52.7363 11.174 52.389 11.0866 51.9927 11.0866C51.5793 11.0866 51.2128 11.1825 50.8932 11.3743C50.5779 11.5618 50.3307 11.8153 50.1518 12.1349C49.9728 12.4503 49.8812 12.8018 49.8769 13.1896V14.794C49.8769 15.2798 49.9664 15.6996 50.1454 16.0533C50.3286 16.407 50.5864 16.6797 50.9188 16.8714C51.2512 17.0632 51.6454 17.1591 52.1013 17.1591C52.4039 17.1591 52.6809 17.1165 52.9323 17.0312C53.1837 16.946 53.3989 16.8182 53.5779 16.6477C53.7569 16.4773 53.8932 16.2685 53.987 16.0213L56.5055 16.1875C56.3776 16.7926 56.1155 17.321 55.7192 17.7727C55.3272 18.2202 54.8201 18.5696 54.1979 18.821C53.58 19.0682 52.8662 19.1918 52.0566 19.1918Z" fill="white"/>
<path d="M19.38 35V21.9091H24.6214C25.5845 21.9091 26.3878 22.0518 27.0312 22.3374C27.6747 22.6229 28.1584 23.0192 28.4822 23.5263C28.8061 24.0291 28.968 24.6087 28.968 25.2649C28.968 25.7763 28.8658 26.2259 28.6612 26.6136C28.4567 26.9972 28.1754 27.3125 27.8175 27.5597C27.4638 27.8026 27.0589 27.9751 26.603 28.0774V28.2053C27.1016 28.2266 27.5682 28.3672 28.0028 28.6271C28.4418 28.8871 28.7976 29.2514 29.0703 29.7202C29.343 30.1847 29.4794 30.7386 29.4794 31.3821C29.4794 32.0767 29.3068 32.6967 28.9616 33.2422C28.6207 33.7834 28.1158 34.2116 27.4467 34.527C26.7777 34.8423 25.9531 35 24.973 35H19.38ZM22.1477 32.7372H24.4041C25.1754 32.7372 25.7379 32.5902 26.0916 32.2962C26.4453 31.9979 26.6222 31.6016 26.6222 31.1072C26.6222 30.745 26.5348 30.4254 26.3601 30.1484C26.1854 29.8714 25.9361 29.6541 25.6122 29.4964C25.2926 29.3388 24.9112 29.2599 24.468 29.2599H22.1477V32.7372ZM22.1477 27.3871H24.1996C24.5788 27.3871 24.9155 27.321 25.2095 27.1889C25.5078 27.0526 25.7422 26.8608 25.9126 26.6136C26.0874 26.3665 26.1747 26.0703 26.1747 25.7251C26.1747 25.2521 26.0064 24.8707 25.6697 24.581C25.3374 24.2912 24.8643 24.1463 24.2507 24.1463H22.1477V27.3871ZM33.9522 21.9091V35H31.2292V21.9091H33.9522ZM40.5696 35.1918C39.5767 35.1918 38.718 34.9808 37.9936 34.5589C37.2734 34.1328 36.7173 33.5405 36.3253 32.782C35.9332 32.0192 35.7372 31.1349 35.7372 30.1293C35.7372 29.1151 35.9332 28.2287 36.3253 27.4702C36.7173 26.7074 37.2734 26.1151 37.9936 25.6932C38.718 25.267 39.5767 25.054 40.5696 25.054C41.5625 25.054 42.419 25.267 43.1392 25.6932C43.8636 26.1151 44.4219 26.7074 44.8139 27.4702C45.206 28.2287 45.402 29.1151 45.402 30.1293C45.402 31.1349 45.206 32.0192 44.8139 32.782C44.4219 33.5405 43.8636 34.1328 43.1392 34.5589C42.419 34.9808 41.5625 35.1918 40.5696 35.1918ZM40.5824 33.0824C41.0341 33.0824 41.4112 32.9545 41.7138 32.6989C42.0163 32.4389 42.2443 32.0852 42.3977 31.6378C42.5554 31.1903 42.6342 30.6811 42.6342 30.1101C42.6342 29.5391 42.5554 29.0298 42.3977 28.5824C42.2443 28.1349 42.0163 27.7812 41.7138 27.5213C41.4112 27.2614 41.0341 27.1314 40.5824 27.1314C40.1264 27.1314 39.7429 27.2614 39.4318 27.5213C39.125 27.7812 38.8928 28.1349 38.7351 28.5824C38.5817 29.0298 38.505 29.5391 38.505 30.1101C38.505 30.6811 38.5817 31.1903 38.7351 31.6378C38.8928 32.0852 39.125 32.4389 39.4318 32.6989C39.7429 32.9545 40.1264 33.0824 40.5824 33.0824ZM55.3416 27.9815L52.8487 28.1349C52.8061 27.9219 52.7145 27.7301 52.5739 27.5597C52.4332 27.3849 52.2479 27.2464 52.0178 27.1442C51.7919 27.0376 51.5213 26.9844 51.206 26.9844C50.7841 26.9844 50.4283 27.0739 50.1385 27.2528C49.8487 27.4276 49.7038 27.6619 49.7038 27.956C49.7038 28.1903 49.7976 28.3885 49.9851 28.5504C50.1726 28.7124 50.4943 28.8423 50.9503 28.9403L52.7273 29.2983C53.6818 29.4943 54.3935 29.8097 54.8622 30.2443C55.331 30.679 55.5653 31.25 55.5653 31.9574C55.5653 32.6009 55.3757 33.1655 54.9964 33.6513C54.6214 34.1371 54.1058 34.5163 53.4496 34.7891C52.7976 35.0575 52.0455 35.1918 51.1932 35.1918C49.8935 35.1918 48.858 34.9212 48.0866 34.38C47.3196 33.8345 46.87 33.093 46.7379 32.1555L49.4162 32.0149C49.4972 32.4112 49.6932 32.7138 50.0043 32.9226C50.3153 33.1271 50.7138 33.2294 51.1996 33.2294C51.6768 33.2294 52.0604 33.1378 52.3501 32.9545C52.6442 32.767 52.7933 32.5263 52.7976 32.2322C52.7933 31.9851 52.6889 31.7827 52.4844 31.625C52.2798 31.4631 51.9645 31.3395 51.5384 31.2543L49.8381 30.9155C48.8793 30.7237 48.1655 30.3913 47.6967 29.9183C47.2322 29.4453 47 28.8423 47 28.1094C47 27.4787 47.1705 26.9354 47.5114 26.4794C47.8565 26.0234 48.3402 25.6719 48.9624 25.4247C49.5888 25.1776 50.3217 25.054 51.1612 25.054C52.4013 25.054 53.3771 25.3161 54.0888 25.8402C54.8047 26.3643 55.2223 27.0781 55.3416 27.9815ZM65.449 27.9815L62.9561 28.1349C62.9135 27.9219 62.8219 27.7301 62.6813 27.5597C62.5407 27.3849 62.3553 27.2464 62.1252 27.1442C61.8993 27.0376 61.6287 26.9844 61.3134 26.9844C60.8915 26.9844 60.5357 27.0739 60.2459 27.2528C59.9561 27.4276 59.8113 27.6619 59.8113 27.956C59.8113 28.1903 59.905 28.3885 60.0925 28.5504C60.28 28.7124 60.6017 28.8423 61.0577 28.9403L62.8347 29.2983C63.7892 29.4943 64.5009 29.8097 64.9696 30.2443C65.4384 30.679 65.6728 31.25 65.6728 31.9574C65.6728 32.6009 65.4831 33.1655 65.1039 33.6513C64.7289 34.1371 64.2132 34.5163 63.557 34.7891C62.905 35.0575 62.1529 35.1918 61.3006 35.1918C60.0009 35.1918 58.9654 34.9212 58.1941 34.38C57.427 33.8345 56.9775 33.093 56.8453 32.1555L59.5236 32.0149C59.6046 32.4112 59.8006 32.7138 60.1117 32.9226C60.4228 33.1271 60.8212 33.2294 61.307 33.2294C61.7843 33.2294 62.1678 33.1378 62.4576 32.9545C62.7516 32.767 62.9007 32.5263 62.905 32.2322C62.9007 31.9851 62.7963 31.7827 62.5918 31.625C62.3873 31.4631 62.0719 31.3395 61.6458 31.2543L59.9455 30.9155C58.9867 30.7237 58.2729 30.3913 57.8042 29.9183C57.3397 29.4453 57.1074 28.8423 57.1074 28.1094C57.1074 27.4787 57.2779 26.9354 57.6188 26.4794C57.964 26.0234 58.4476 25.6719 59.0698 25.4247C59.6962 25.1776 60.4292 25.054 61.2686 25.054C62.5087 25.054 63.4846 25.3161 64.1962 25.8402C64.9121 26.3643 65.3297 27.0781 65.449 27.9815ZM71.8235 35.1918C70.8306 35.1918 69.9719 34.9808 69.2475 34.5589C68.5273 34.1328 67.9712 33.5405 67.5792 32.782C67.1871 32.0192 66.9911 31.1349 66.9911 30.1293C66.9911 29.1151 67.1871 28.2287 67.5792 27.4702C67.9712 26.7074 68.5273 26.1151 69.2475 25.6932C69.9719 25.267 70.8306 25.054 71.8235 25.054C72.8164 25.054 73.6729 25.267 74.3931 25.6932C75.1175 26.1151 75.6758 26.7074 76.0678 27.4702C76.4599 28.2287 76.6559 29.1151 76.6559 30.1293C76.6559 31.1349 76.4599 32.0192 76.0678 32.782C75.6758 33.5405 75.1175 34.1328 74.3931 34.5589C73.6729 34.9808 72.8164 35.1918 71.8235 35.1918ZM71.8363 33.0824C72.288 33.0824 72.6651 32.9545 72.9677 32.6989C73.2702 32.4389 73.4982 32.0852 73.6516 31.6378C73.8093 31.1903 73.8881 30.6811 73.8881 30.1101C73.8881 29.5391 73.8093 29.0298 73.6516 28.5824C73.4982 28.1349 73.2702 27.7812 72.9677 27.5213C72.6651 27.2614 72.288 27.1314 71.8363 27.1314C71.3803 27.1314 70.9968 27.2614 70.6857 27.5213C70.3789 27.7812 70.1467 28.1349 69.989 28.5824C69.8356 29.0298 69.7589 29.5391 69.7589 30.1101C69.7589 30.6811 69.8356 31.1903 69.989 31.6378C70.1467 32.0852 70.3789 32.4389 70.6857 32.6989C70.9968 32.9545 71.3803 33.0824 71.8363 33.0824ZM78.4265 35V25.1818H81.0217V26.9141H81.1367C81.3413 26.3388 81.6822 25.8849 82.1594 25.5526C82.6367 25.2202 83.2077 25.054 83.8725 25.054C84.5458 25.054 85.119 25.2223 85.592 25.5589C86.065 25.8913 86.3803 26.343 86.538 26.9141H86.6403C86.8406 26.3516 87.2028 25.902 87.7269 25.5653C88.2553 25.2244 88.8796 25.054 89.5998 25.054C90.516 25.054 91.2596 25.3459 91.8306 25.9297C92.4059 26.5092 92.6935 27.3317 92.6935 28.397V35H89.9769V28.9339C89.9769 28.3885 89.832 27.9794 89.5423 27.7067C89.2525 27.4339 88.8903 27.2976 88.4556 27.2976C87.9613 27.2976 87.5756 27.4553 87.2987 27.7706C87.0217 28.0817 86.8832 28.4929 86.8832 29.0043V35H84.2433V28.8764C84.2433 28.3949 84.1048 28.0114 83.8278 27.7259C83.555 27.4403 83.195 27.2976 82.7475 27.2976C82.445 27.2976 82.1722 27.3743 81.9293 27.5277C81.6907 27.6768 81.5011 27.8878 81.3604 28.1605C81.2198 28.429 81.1495 28.7443 81.1495 29.1065V35H78.4265Z" fill="white"/>
</svg>
